<svg version="1.1" id="Layer_1" xmlns="http://www.w3.org/2000/svg" xmlns:xlink="http://www.w3.org/1999/xlink" x="0px" y="0px" viewBox="0 0 172 384.1" style="enable-background:new 0 0 172 384.1;" xml:space="preserve">
  <style>

	.st0{fill:#D3D3D3;}
	.st1{fill:#A0A0A0;}
	.st2{fill:none;}
	.st3{fill:#AAAAAA;}
	.st4{fill:#FFFFFF;}
	.st5{opacity:0.2;fill:#AAAAAA;}
	.st6{opacity:0.2;}
  </style>
  <line class="upper" x1="86" x2="86" y1="53" y2="185" stroke-width="130"/>
  <line class="lower" x1="86" x2="86" y1="215" y2="354" stroke-width="130"/>
  <g>
    <path class="st0" d="M15.8,211.1l0.3,2.9l8.6,140l0.5,5.1l0.3,3h120.3l0.3-3l0.5-5.1l9.5-140l0.3-2.9H15.8z M141.6,353.4l-0.3,3.6
    H30l-0.3-3.6l-8.4-137.3h129.5L141.6,353.4z"/>
    <path class="st1" d="M10.3,206.1l0.6,6l9,144.4l0.7,8l0.2,2.6h129.5l0.2-2.6l0.7-8l9.9-144.4l0.6-6H10.3z M141.2,357.1H30l-0.3-3.6
    l-8.4-137.4h129.5l-9.2,137.3L141.2,357.1z"/>
    <polygon class="st2" points="150.8,216.1 141.6,353.4 141.2,357.1 30,357.1 29.6,353.4 21.3,216.1"/>
  </g>
  <g>
    <path
      class="st0"
      d="M153.5,200.1c1.6,0,2.8-1.3,2.6-2.9l0,0l-9.5-140l-0.5-5.1l-0.1-0.6c-0.1-1.3-1.3-2.4-2.6-2.4H27.9
    c-1.4,0-2.5,1-2.6,2.4l-0.1,0.6l-0.5,5.1l-8.6,140v0c-0.2,1.6,1.1,2.9,2.6,2.9H153.5z M148,195.1H24.1c-1.5,0-2.7-1.3-2.6-2.8
    l8.2-134.5l0.1-1.2c0.1-1.4,1.3-2.4,2.6-2.4h106.5c1.4,0,2.5,1,2.6,2.4l0.1,1.2l9,134.5C150.7,193.8,149.5,195.1,148,195.1z"/>
    <path
      class="st1"
      d="M158.8,205.1c1.6,0,2.8-1.3,2.6-2.9l-0.3-3.1l-9.9-144.4l-0.7-8l0-0.2c-0.1-1.4-1.2-2.4-2.6-2.4H23.2
    c-1.4,0-2.5,1.1-2.6,2.4l0,0.2l-0.7,8l-9,144.4l-0.3,3.1c-0.2,1.5,1.1,2.9,2.6,2.9H158.8z M141.6,57.8l9,134.5
    c0.1,1.5-1.1,2.8-2.6,2.8H24.1c-1.5,0-2.7-1.3-2.6-2.8l8.2-134.6l0.1-1.2c0.1-1.4,1.3-2.4,2.6-2.4h106.4c1.3,0,2.5,1,2.6,2.3
    L141.6,57.8z"/>
    <path class="st2" d="M24.1,195.1c-1.5,0-2.7-1.3-2.6-2.8l8.1-134.5l0.1-1.4c0.1-1.3,1.3-2.3,2.6-2.3h106.5c1.3,0,2.5,1,2.6,2.3
    l0.1,1.4l9,134.5c0.1,1.5-1.1,2.8-2.6,2.8H24.1z"/>
  </g>
  <g>
    <path class="st3" d="M167.1,196.9v2.6c0,5.1-3.8,9.6-8.9,9.6H14c-5.1,0-8.9-4.5-8.9-9.6v-2.6c0-4.8,3.5-8.5,8.1-8.9
    c0.3,0,0.4,0.2,0.8,0.2h144.2c0.3,0,0.5-0.2,0.8-0.2C163.6,188.4,167.1,192.2,167.1,196.9z"/>
    <path
      class="st1"
      d="M163.8,184.1c-1.3-0.6-2.8-0.9-4.3-1c-0.3,0-0.5,0.1-0.8,0.1h-0.2c-0.4,0-0.7-0.1-1,0H14.7
    c-0.3-0.1-0.7-0.2-1.2-0.2c-0.2,0-0.5,0-0.8,0c-1.5,0.2-3,0.5-4.4,1.1c-5,2.2-8.3,7-8.3,12.8v2.6c0,5.4,2.8,10.1,6.9,12.6
    c1.6,1,3.3,1.6,5.2,1.9c0.6,0.1,1.2,0.1,1.8,0.1h144.2c0.6,0,1.2,0,1.8-0.1c1.9-0.2,3.6-0.9,5.2-1.9c4.1-2.5,6.9-7.2,6.9-12.6v-2.6
    C172.1,191.1,168.8,186.3,163.8,184.1z M10.1,196.9c0-1.9,1.1-3.4,2.9-3.8h0.1c0.3,0,0.6,0.1,0.9,0.1h144.2c0.3,0,0.7,0,0.9-0.1
    h0.1c1.7,0.5,2.9,1.9,2.9,3.8v2.6c0,2.2-1.5,4.6-3.9,4.6H14c-2.4,0-3.9-2.4-3.9-4.6V196.9z"/>
  </g>
  <g>
    <path class="st3" d="M143.5,379.6h-115c-4.2,0-7.6-3.4-7.6-7.6v-5.9c0-4.2,3.4-7.6,7.6-7.6h115c4.2,0,7.6,3.4,7.6,7.6v5.9
    C151.1,376.2,147.7,379.6,143.5,379.6z"/>
    <path
      class="st1"
      d="M151.6,356.6c-1.4-1.2-3-2.2-4.7-2.7c-1.1-0.3-2.2-0.7-3.4-0.7h-115c-1.2,0-2.3,0.3-3.4,0.7
    c-1.8,0.5-3.3,1.5-4.7,2.7c-2.7,2.3-4.4,5.8-4.4,9.7v5.8c0,7,5.5,12.2,12.5,12.2h115c6.9,0,12.5-5.2,12.5-12.2v-6
    C156,362.3,154.3,358.9,151.6,356.6z M146,371.5c0,1.4-1.2,2.6-2.6,2.6H28.6c-1.4,0-2.6-1.2-2.6-2.6v-5.8c0-1.4,1.2-2.6,2.6-2.6
    h114.8c1.4,0,2.6,1.2,2.6,2.6L146,371.5L146,371.5z"/>
  </g>
  <g>
    <path
      class="st4"
      d="M148.4,23.4c0,1.6,1,3,2.6,4.2h-0.1c-0.1,0-0.2-0.1-0.3-0.1c-0.2-0.1-0.4-0.1-0.6-0.2c-0.1,0-0.3-0.1-0.4-0.1
    h-0.1c-0.2,0-0.4-0.1-0.6-0.1c-0.2,0-0.4-0.1-0.6-0.1c-0.2,0-0.3,0.1-0.5,0.1c-0.5,0-0.9,0.1-1.4,0.1h-121c-0.5,0-0.9-0.1-1.4-0.1
    c-0.2,0-0.3,0-0.5,0s-0.4,0-0.6,0s-0.4,0-0.6,0.1h-0.1c-0.1,0-0.3,0.1-0.4,0.1c-0.2,0-0.4,0.1-0.6,0.2c-0.1,0-0.2,0.1-0.3,0.1h-0.1
    c1.7-1.1,2.6-2.6,2.6-4.2s-1-3.1-2.7-4.2c0.2,0.1,0.3,0.1,0.5,0.2s0.4,0.1,0.5,0.1c0.4,0.1,0.8,0.2,1.2,0.2
    c0.4,0.1,0.8,0.2,1.1,0.2c0.4,0,0.8,0.2,1.3,0.2h121c0.4,0,0.8-0.1,1.3-0.2c0.4,0,0.8-0.1,1.1-0.2c0.4-0.1,0.8-0.2,1.2-0.3
    c0.2,0,0.4-0.1,0.5-0.2c0.2-0.1,0.3-0.1,0.5-0.2C149.5,20.3,148.4,21.8,148.4,23.4z"/>
    <path
      class="st1"
      d="M20.8,19.2c1.7,1.1,2.7,2.6,2.7,4.2c0,1.6-1,3-2.6,4.2H21c0.1,0,0.2-0.1,0.3-0.1c0.2-0.1,0.4-0.1,0.6-0.2
    c0.1,0,0.3-0.1,0.4-0.1h0.1c0.2,0,0.4-0.1,0.6-0.1s0.4,0,0.6,0c0,0,0,0,0.1,0s0.2,0,0.3,0c0,0,0,0,0.1,0s0.1,0,0.2,0
    c0.4,0,0.8,0.1,1.2,0.1h121c0.4,0,0.8-0.1,1.2-0.1c0.1,0,0.1,0,0.2,0l0,0c0.1,0,0.3-0.1,0.4-0.1l0,0c0.2,0,0.4,0.1,0.6,0.1
    c0.2,0,0.4,0.1,0.6,0.1h0.1c0.1,0,0.3,0.1,0.4,0.1c0.2,0,0.4,0.1,0.6,0.2c0.1,0,0.2,0.1,0.3,0.1h0.1c-1.7-1.1-2.6-2.6-2.6-4.2
    s1-3.1,2.7-4.2c-0.2,0.1-0.3,0.1-0.5,0.2s-0.4,0.1-0.5,0.2c-0.4,0.1-0.8,0.2-1.2,0.3c-0.4,0.1-0.8,0.1-1.1,0.2
    c-0.4,0-0.8,0.2-1.3,0.2h-121c-0.4,0-0.8-0.1-1.3-0.2c-0.4,0-0.8-0.2-1.1-0.3c-0.4-0.1-0.8-0.1-1.2-0.2c-0.2,0-0.4-0.1-0.5-0.1
    C21.2,19.3,21,19.2,20.8,19.2L20.8,19.2z"/>
  </g>
  <path class="st5" d="M154.7,216.2l-12.7,137h-29.4c11.5-38,18.5-87.5,18.5-134.7v-2.3H154.7z"/>
  <g class="st6">
    <path class="st3" d="M153.6,183.2h-22.7c-0.6-55.1-4.9-108.6-33.5-129h40.7c2,0,3.6,1.5,3.8,3.5L153.6,183.2z"/>
  </g>
  <g>
    <path class="st3" d="M143.9,42.6H28.1c-4,0-7.3-3.2-7.3-7.3l0,0c0-4,3.2-7.3,7.3-7.3h115.8c4,0,7.3,3.2,7.3,7.3l0,0
    C151.1,39.3,147.9,42.6,143.9,42.6z"/>
    <path
      class="st1"
      d="M151.6,26.7c-1.4-0.8-3-1.1-4.7-1.5c-1.1-0.2-2.2-0.1-3.4-0.1h-115c-1.2,0-2.3-0.2-3.4,0.1
    c-1.8,0.3-3.3,0.8-4.7,1.6c-2.7,1.6-4.4,3.8-4.4,6.5v4c0,4.8,5.5,8.8,12.5,8.8h115c6.9,0,12.5-4,12.5-8.8v-4
    C156,30.7,154.3,28.3,151.6,26.7z M146,37.5c0,1-1.2,1.7-2.6,1.7H28.6c-1.4,0-2.6-0.7-2.6-1.7v-4c0-1,1.2-1.3,2.6-1.3h114.8
    c1.4,0,2.6,0.4,2.6,1.3L146,37.5L146,37.5z"/>
  </g>
  <g>
    <path class="st3" d="M143.9,17.6H28.1c-4,0-7.3-3.2-7.3-7.3l0,0c0-4,3.2-7.3,7.3-7.3h115.8c4,0,7.3,3.2,7.3,7.3l0,0
    C151.1,14.3,147.9,17.6,143.9,17.6z"/>
    <path
      class="st1"
      d="M151.6,1.7c-1.4-0.8-3-1.1-4.7-1.5c-1.1-0.2-2.2-0.1-3.4-0.1h-115c-1.2,0-2.3-0.2-3.4,0.1
    c-1.8,0.3-3.3,0.8-4.7,1.6C17.7,3.4,16,5.7,16,8.3v4c0,4.8,5.5,8.8,12.5,8.8h115c6.9,0,12.5-4,12.5-8.8v-4
    C156,5.7,154.3,3.3,151.6,1.7z M146,12.5c0,1-1.2,1.7-2.6,1.7H28.6c-1.4,0-2.6-0.7-2.6-1.7v-4c0-1,1.2-1.3,2.6-1.3h114.8
    c1.4,0,2.6,0.4,2.6,1.3L146,12.5L146,12.5z"/>
  </g>
</svg>
