<svg xmlns="http://www.w3.org/2000/svg" xmlns:xlink="http://www.w3.org/1999/xlink"
  version="1.1" viewBox="0 0 64 64" enable-background="new 0 0 64 64" xml:space="preserve">
  <g>
    <path
      fill="#fff"
      d="M30.024,24.798c0.659-0.114,1.336-0.174,2.027-0.174c4.286,0,8.041,2.247,10.165,5.626   c0.805,1.28,2.734,1.174,3.432-0.167c1.707-3.282,2.995-7.213,2.995-11.612c0-9.175-7.552-16.501-16.682-16.501   c-15.858,0-7.093,12.209-4.153,21.498C28.106,24.409,29.052,24.966,30.024,24.798z"/><path
      fill="#fff"
      d="M20.765,36.291c0-2.209,0.6-4.275,1.643-6.051c0.79-1.345-0.206-3.058-1.764-3.004   c-3.686,0.128-8.459,1.293-12.266,3.463C0.436,35.226-2.35,45.365,2.156,53.344c7.706,13.647,14.774,0.305,21.258-6.926   c0.658-0.734,0.646-1.822,0.025-2.588C21.769,41.77,20.765,39.15,20.765,36.291z"/><path
      fill="#fff"
      d="M44.993,38.178c-0.996-0.189-1.956,0.422-2.253,1.391c-1.833,5.997-7.021,7.993-10.81,8.163   c-1.556,0.07-2.494,1.785-1.627,3.079c2.009,2.997,5.433,7.044,9.135,9.117c7.977,4.465,18.045,1.587,22.488-6.428   C69.521,39.8,54.512,39.981,44.993,38.178z"/>
      <circle fill="#fff" cx="31.962" cy="36.06" r="6.016"/>
  </g>
</svg>
